<?xml version="1.0" encoding="utf-8"?>
<!-- Generator: Adobe Illustrator 12.0.0, SVG Export Plug-In  -->
<!DOCTYPE svg PUBLIC "-//W3C//DTD SVG 1.1//EN" "http://www.w3.org/Graphics/SVG/1.1/DTD/svg11.dtd" [
	<!ENTITY ns_flows "http://ns.adobe.com/Flows/1.0/">
	<!ENTITY ns_svg "http://www.w3.org/2000/svg">
	<!ENTITY ns_xlink "http://www.w3.org/1999/xlink">
]>
<svg  version="1.1" xmlns="&ns_svg;" xmlns:xlink="&ns_xlink;" xmlns:a="http://ns.adobe.com/AdobeSVGViewerExtensions/3.0/"
	 width="252" height="71" viewBox="-0.0009766 -0.5297852 252 71" enable-background="new -0.0009766 -0.5297852 252 71"
	 xml:space="preserve">
<defs>
</defs>
<path fill="#070707" d="M137.0800781,31.9116211c-0.5439453,0.3544922-1.1474609,1.0014648-1.7792969,1.9677734l0.3779297-2.2011719
	h-4.8212891l-2.3681641,13.4707031h5.1777344l0.7998047-4.5234375c0.3779297-2.1582031,0.9003906-3.625,1.5673828-4.4238281
	c0.4794922-0.5429688,1.0458984-0.8339844,1.7138672-0.8339844c0.3632813,0,0.8203125,0.1220703,1.3867188,0.3974609
	l2.2431641-3.6884766c-0.8203125-0.4848633-1.5976563-0.7104492-2.3671875-0.7104492
	C138.2998047,31.3676758,137.6474609,31.5327148,137.0800781,31.9116211z M122.6293945,30.0429688h5.1489258l0.609375-3.4541016
	h-5.1552734L122.6293945,30.0429688z M119.965332,45.1499023h5.1337891l2.3891602-13.4707031h-5.1337891L119.965332,45.1499023z
	 M117.4521484,32.7021484c-0.5229492-0.543457-1.2563477-0.921875-2.15625-1.0888672
	c-0.9003906-0.1669922-2.1347656-0.2456055-3.6665039-0.2456055c-0.9667969,0-1.8881836,0.0571289-2.7241211,0.2080078
	c-0.855957,0.1469727-1.5532227,0.3574219-2.0537109,0.6040039c-0.7338867,0.3544922-1.3144531,0.7983398-1.7578125,1.2988281
	c-0.421875,0.4799805-0.8208008,1.1777344-1.1557617,2.034668l4.8227539,0.4785156
	c0.3120117-0.5649414,0.6464844-0.9594727,1.0019531-1.1699219c0.4868164-0.2548828,1.1333008-0.3974609,1.9672852-0.3974609
	c0.675293,0,1.1113281,0.121582,1.3217773,0.3754883c0.2109375,0.2470703,0.2753906,0.7124023,0.1455078,1.3374023
	c-0.668457,0.2539063-1.3139648,0.4648438-1.9243164,0.609375c-0.5874023,0.1660156-1.8876953,0.4433594-3.8994141,0.8408203
	c-1.6547852,0.3134766-2.8466797,0.7929688-3.5581055,1.4667969c-0.7324219,0.6689453-1.1762695,1.5029297-1.3647461,2.5341797
	c-0.1884766,1.0908203,0.065918,2.0126953,0.7768555,2.7597656c0.6894531,0.7548828,1.84375,1.1113281,3.4345703,1.1113281
	c1.2202148,0,2.3095703-0.1669922,3.2670898-0.5429688c0.7338867-0.2919922,1.4887695-0.7558594,2.2661133-1.4248047
	c0,0.4013672,0,0.6914063,0.043457,0.8564453c0.0214844,0.1904297,0.1005859,0.4648438,0.2246094,0.8017578h4.84375
	c-0.1665039-0.5478516-0.2543945-1.0039063-0.2758789-1.359375c-0.0219727-0.3779297,0.0214844-0.8632813,0.1518555-1.5107422
	l1.0458984-5.9560547c0.1015625-0.6230469,0.1015625-1.2915039-0.0219727-2.0029297
	C118.0629883,33.6259766,117.8085938,33.0786133,117.4521484,32.7021484z M112.5947266,39.5786133
	c-0.1083984,0.6474609-0.2983398,1.1699219-0.5654297,1.5683594c-0.2988281,0.3994141-0.6904297,0.7333984-1.234375,1.0244141
	c-0.5449219,0.2763672-1.090332,0.4199219-1.65625,0.4199219c-0.5449219,0-0.9438477-0.1220703-1.1767578-0.3984375
	c-0.2314453-0.2470703-0.3120117-0.5888672-0.2470703-0.9804688c0.0581055-0.3564453,0.2695313-0.6738281,0.6025391-0.9648438
	c0.3134766-0.2763672,1.0317383-0.5449219,2.1206055-0.8203125c0.7919922-0.1884766,1.5688477-0.4140625,2.3027344-0.6689453
	L112.5947266,39.5786133z M245.8720703,26.5893555l-0.6308594,3.4541016h5.1552734L251,26.5893555H245.8720703z
	 M238.3056641,31.6787109l-3.6884766,8.4467773l-1.3574219-8.4467773h-4.6132813l-4.2246094,8.4467773l-0.6972656-8.4467773
	h-4.9814453l2.6132813,13.4711914h4.6123047l4.0664063-8.1054688l1.2988281,8.1054688h4.5820313l7.3564453-13.4711914H238.3056641z
	 M242.5830078,45.1499023h5.1474609l2.3681641-13.4707031h-5.1269531L242.5830078,45.1499023z M215.5537109,32.7021484
	c-0.5214844-0.543457-1.2548828-0.921875-2.1552734-1.0888672c-0.9013672-0.1669922-2.1357422-0.2456055-3.6679688-0.2456055
	c-0.9658203,0-1.8642578,0.0571289-2.7226563,0.2080078c-0.8574219,0.1469727-1.5458984,0.3574219-2.0537109,0.6040039
	c-0.734375,0.3544922-1.3144531,0.7983398-1.7353516,1.2988281c-0.4433594,0.4799805-0.8359375,1.1777344-1.1767578,2.034668
	l4.8427734,0.4785156c0.2900391-0.5649414,0.625-0.9594727,0.9814453-1.1699219
	c0.4863281-0.2548828,1.1308594-0.3974609,1.9746094-0.3974609c0.6679688,0,1.1035156,0.121582,1.3144531,0.3754883
	c0.2099609,0.2470703,0.2753906,0.7124023,0.1523438,1.3374023c-0.6748047,0.2539063-1.3222656,0.4648438-1.9316406,0.609375
	c-0.5888672,0.1660156-1.8886719,0.4433594-3.8935547,0.8408203c-1.6542969,0.3134766-2.8515625,0.7929688-3.5644531,1.4667969
	c-0.7119141,0.6689453-1.1699219,1.5029297-1.3427734,2.5341797c-0.203125,1.0908203,0.0429688,2.0126953,0.7558594,2.7597656
	c0.6953125,0.7548828,1.8427734,1.1113281,3.4326172,1.1113281c1.2216797,0,2.3115234-0.1669922,3.2890625-0.5429688
	c0.7119141-0.2919922,1.4677734-0.7558594,2.2431641-1.4248047c0,0.4013672,0,0.6914063,0.0458984,0.8564453
	c0.0224609,0.1904297,0.1015625,0.4648438,0.2314453,0.8017578h4.8583984
	c-0.1884766-0.5478516-0.2763672-1.0039063-0.2900391-1.359375c-0.0205078-0.3779297,0.0146484-0.8632813,0.1445313-1.5107422
	l1.0458984-5.9560547c0.1015625-0.6230469,0.1015625-1.2915039-0.0224609-2.0029297
	C216.1650391,33.6259766,215.9121094,33.0786133,215.5537109,32.7021484z M210.7197266,39.5786133
	c-0.1298828,0.6474609-0.3125,1.1699219-0.5878906,1.5683594c-0.2900391,0.3994141-0.6904297,0.7333984-1.2353516,1.0244141
	c-0.5439453,0.2763672-1.0898438,0.4199219-1.6572266,0.4199219c-0.5429688,0-0.9433594-0.1220703-1.1728516-0.3984375
	c-0.2255859-0.2470703-0.3144531-0.5888672-0.2480469-0.9804688c0.0576172-0.3564453,0.2675781-0.6738281,0.6035156-0.9648438
	c0.3173828-0.2763672,1.0302734-0.5449219,2.1191406-0.8203125c0.7929688-0.1884766,1.5683594-0.4140625,2.3027344-0.6689453
	L210.7197266,39.5786133z M189.5810547,32.7021484c-0.5224609-0.543457-1.234375-0.921875-2.1582031-1.0888672
	c-0.8994141-0.1669922-2.1191406-0.2456055-3.6660156-0.2456055c-0.9658203,0-1.8671875,0.0571289-2.7226563,0.2080078
	c-0.8652344,0.1469727-1.5322266,0.3574219-2.0546875,0.6040039c-0.7333984,0.3544922-1.3017578,0.7983398-1.7353516,1.2988281
	c-0.4423828,0.4799805-0.84375,1.1777344-1.1767578,2.034668l4.8417969,0.4785156
	c0.2910156-0.5649414,0.6259766-0.9594727,1.0019531-1.1699219c0.4580078-0.2548828,1.1123047-0.3974609,1.96875-0.3974609
	c0.6542969,0,1.0878906,0.121582,1.2998047,0.3754883c0.2099609,0.2470703,0.2753906,0.7124023,0.1669922,1.3374023
	c-0.6914063,0.2539063-1.34375,0.4648438-1.9248047,0.609375c-0.6083984,0.1660156-1.9091797,0.4433594-3.9199219,0.8408203
	c-1.65625,0.3134766-2.8476563,0.7929688-3.5585938,1.4667969c-0.7109375,0.6689453-1.1767578,1.5029297-1.3447266,2.5341797
	c-0.1884766,1.0908203,0.0654297,2.0126953,0.7558594,2.7597656c0.6894531,0.7548828,1.8457031,1.1113281,3.4560547,1.1113281
	c1.1914063,0,2.2802734-0.1669922,3.2675781-0.5429688c0.7128906-0.2919922,1.4677734-0.7558594,2.265625-1.4248047
	c-0.0214844,0.4013672,0,0.6914063,0.0214844,0.8564453c0.0146484,0.1904297,0.1005859,0.4648438,0.2255859,0.8017578h4.8642578
	c-0.1660156-0.5478516-0.2763672-1.0039063-0.2978516-1.359375c-0.0205078-0.3779297,0.0439453-0.8632813,0.1455078-1.5107422
	l1.0527344-5.9560547c0.0996094-0.6230469,0.0996094-1.2915039-0.0224609-2.0029297
	C190.2050781,33.6259766,189.9570313,33.0786133,189.5810547,32.7021484z M184.7382813,39.5786133
	c-0.125,0.6474609-0.3144531,1.1699219-0.5820313,1.5683594c-0.2763672,0.3994141-0.6982422,0.7333984-1.2421875,1.0244141
	c-0.5224609,0.2763672-1.0888672,0.4199219-1.6474609,0.4199219c-0.5449219,0-0.9453125-0.1220703-1.1777344-0.3984375
	c-0.2324219-0.2470703-0.3115234-0.5888672-0.2539063-0.9804688c0.0654297-0.3564453,0.2763672-0.6738281,0.6083984-0.9648438
	c0.3144531-0.2763672,1.0263672-0.5449219,2.1152344-0.8203125c0.7978516-0.1884766,1.5751953-0.4140625,2.3300781-0.6689453
	L184.7382813,39.5786133z M195.3828125,26.5893555l-3.2900391,18.5605469h5.2011719l3.2666016-18.5605469H195.3828125
	L195.3828125,26.5893555z M169.3212891,31.3676758c-0.9814453,0-1.8222656,0.1430664-2.5556641,0.4550781
	c-0.7128906,0.3139648-1.5693359,0.9243164-2.5351563,1.8032227c-0.2529297-0.7553711-0.6689453-1.3168945-1.234375-1.6918945
	c-0.5439453-0.378418-1.3652344-0.565918-2.4550781-0.565918c-0.9794922,0-1.8808594,0.1655273-2.6357422,0.5219727
	c-0.7763672,0.3339844-1.5751953,0.921875-2.4101563,1.7363281l0.3330078-1.9467773h-4.8134766l-2.390625,13.4711914h5.1933594
	l1.21875-6.8935547c0.1679688-1.0234375,0.5-1.7568359,0.9375-2.2011719c0.4648438-0.4648438,1.0087891-0.6875,1.5976563-0.6875
	c0.3554688,0,0.6464844,0.0996094,0.9003906,0.3105469c0.2255859,0.2128906,0.3574219,0.4804688,0.4140625,0.8203125
	c0.0205078,0.2246094,0,0.6269531-0.1015625,1.2119141l-1.3212891,7.4384766h5.1992188L163.875,38.1694336
	c0.1884766-0.9794922,0.4785156-1.6914063,0.9433594-2.1357422c0.4355469-0.4433594,0.9667969-0.6660156,1.5683594-0.6660156
	c0.5078125,0,0.9013672,0.2226563,1.1542969,0.7099609c0.1894531,0.2910156,0.2333984,0.7539063,0.1240234,1.3574219
	l-1.3583984,7.7138672h5.1708984l1.5107422-8.4609375c0.3125-1.8212891,0.1445313-3.1884766-0.5009766-4.0449219
	C171.8115234,31.7802734,170.7666016,31.3676758,169.3212891,31.3676758z"/>
<path id="path2985_1_" fill="#FB0F0C" d="M81.8588867,34.9702148c0,19.3134766-15.6567383,34.9697266-34.9702148,34.9697266
	s-34.9697266-15.65625-34.9697266-34.9697266C11.918457,15.6567383,27.5751953,0,46.8886719,0
	S81.8588867,15.6567383,81.8588867,34.9702148z"/>
<path fill="#FFFFFF" stroke="#000000" stroke-width="2" d="M18.2270508,28.7089844c0,0-2.6323242-1.8461914,3.0957031-3.3759766
	c0,0,1.9560547-1.090332-1.3144531-1.0087891c0,0-14.9780273,0.081543-18.8461914,4.1455078
	c0,0-1.3945313,0.1098633,3.9912109,0.972168c0,0,35.0390625,18.0527344,84.1567383,28.1572266
	c0,0,3.5883789,0.9238281,3.5644531-0.1601563C92.8745117,57.4389648,29.4052734,30.8208008,18.2270508,28.7089844z
	 M36.7226563,26.6796875l3.0385742,6.5810547l5.7148438,2.159668l15.1030273-6.3012695l-7.0771484,9.2143555l6.3374023,2.6640625
	l15.5380859-17.3120117H59.7695313l-13.2841797,6.5737305l-0.7158203-6.9106445H30.0917969l-4.425293,4.8330078l6.4316406,2.2412109
	L36.7226563,26.6796875z"/>
</svg>
